<svg width="25" height="24" viewBox="0 0 25 24" fill="none" xmlns="http://www.w3.org/2000/svg">
<g id="icon / 16 / unvisible">
<g id="Union">
<path fill-rule="evenodd" clip-rule="evenodd" d="M17.9371 6.14587C18.1306 6.33905 18.1306 6.65227 17.9371 6.84545L15.5749 9.20343C15.5663 9.21271 15.5574 9.22161 15.5481 9.23012L13.8509 10.9243C13.8461 10.9295 13.8412 10.9346 13.8361 10.9396C13.8054 10.9701 13.7745 11.0008 13.7432 11.0319L11.1045 13.6657C11.0736 13.6968 11.0424 13.7282 11.0109 13.7598C11.0058 13.7648 11.0007 13.7698 10.9955 13.7746L9.29869 15.4683C9.29005 15.4776 9.2811 15.4866 9.27186 15.4951L6.90852 17.8542C6.71498 18.0474 6.4012 18.0474 6.20767 17.8542C6.01413 17.661 6.01413 17.3478 6.20767 17.1546L8.13367 15.2321C7.14703 14.6134 6.24784 13.864 5.46109 13.0034L5.45924 13.0014C5.21078 12.7266 5.07326 12.3696 5.07326 11.9994C5.07326 11.6293 5.21079 11.2723 5.45925 10.9975L5.46406 10.9921C6.00632 10.4096 6.90049 9.54444 8.02845 8.82212C9.15383 8.10145 10.5456 7.50156 12.0733 7.50156H12.0837C13.1417 7.52364 14.1796 7.78247 15.1215 8.25681L17.2363 6.14587C17.4298 5.95268 17.7436 5.95268 17.9371 6.14587ZM13.4522 9.92313C13.0473 9.65359 12.569 9.50572 12.0751 9.50364H12.0731C11.4098 9.50364 10.7737 9.76664 10.3047 10.2348C9.83575 10.7029 9.57228 11.3379 9.57228 11.9999L9.57229 12.002C9.57437 12.495 9.7225 12.9724 9.99253 13.3766L8.85413 14.5129C7.86754 13.9201 6.9715 13.1876 6.19425 12.3377C6.11066 12.2448 6.06441 12.1243 6.06441 11.9994C6.06441 11.8752 6.11021 11.7553 6.19302 11.6626C6.70373 11.1143 7.53291 10.3149 8.56364 9.65485C9.59745 8.99282 10.8006 8.49229 12.0682 8.49093C12.8658 8.50826 13.6501 8.68201 14.377 9L13.4522 9.92313Z" fill="white"/>
<path d="M17.7066 10.0301C17.5026 9.84792 17.1893 9.86529 17.0068 10.0689C16.8243 10.2725 16.8417 10.5852 17.0457 10.7674C17.4103 11.093 17.7188 11.4103 17.9523 11.6627C18.0354 11.7554 18.0813 11.8755 18.0813 12C18.0813 12.1243 18.0355 12.2442 17.9527 12.3369C17.442 12.8852 16.6128 13.6845 15.5821 14.3446C14.5469 15.0075 13.3419 15.5085 12.0724 15.5085H11.6714C11.3977 15.5085 11.1758 15.73 11.1758 16.0032C11.1758 16.2764 11.3977 16.4979 11.6714 16.4979H12.0724C13.6001 16.4979 14.9919 15.898 16.1173 15.1773C17.2453 14.455 18.1394 13.5898 18.6816 13.0073L18.6865 13.002C18.935 12.7272 19.0725 12.3702 19.0725 12C19.0725 11.6299 18.935 11.2728 18.6865 10.998L18.6828 10.994C18.4352 10.7262 18.1029 10.384 17.7066 10.0301Z" fill="white"/>
</g>
</g>
</svg>
